<svg xmlns:xlink="http://www.w3.org/1999/xlink" xmlns="http://www.w3.org/2000/svg" viewBox="0 0 320 100" preserveAspectRatio="xMidYMid meet" class="css-zcsj26" id="cbbbfdcf" width="320"  height="100" ><defs id="SvgjsDefs1055"></defs><g id="SvgjsG1056" featurekey="symbolFeature-0" transform="matrix(1.2487499713897705,0,0,1.2487499713897705,-12.299700007316895,-12.437501524353065)" fill="#000000"><path xmlns="http://www.w3.org/2000/svg" d="M49.8613281,59.0126953c4.9697266,0,9.0126953-4.0429688,9.0126953-9.0126953s-4.0429688-9.0126953-9.0126953-9.0126953  S40.8486328,45.0302734,40.8486328,50S44.8916016,59.0126953,49.8613281,59.0126953z M49.8613281,42.9873047  c3.8671875,0,7.0126953,3.1455078,7.0126953,7.0126953s-3.1455078,7.0126953-7.0126953,7.0126953  S42.8486328,53.8671875,42.8486328,50S45.9941406,42.9873047,49.8613281,42.9873047z"></path><path xmlns="http://www.w3.org/2000/svg" d="M31.6396484,52.9130859c-0.2822266,0.0292969-0.5390625,0.1777344-0.7050781,0.4072266  c-0.1669922,0.2294922-0.2275391,0.5195312-0.1679688,0.796875c0.4951172,2.3056641,1.3974609,4.4833984,2.6835938,6.4716797  c0.1542969,0.2382812,0.4023438,0.3994141,0.6816406,0.4443359c0.2802734,0.0488281,0.5664062-0.03125,0.7871094-0.2099609  c1.1650391-0.9414062,2.8457031-0.8515625,3.9091797,0.2099609c1.0615234,1.0625,1.1523438,2.7431641,0.2089844,3.9101562  c-0.1777344,0.2197266-0.2539062,0.5058594-0.2089844,0.7861328s0.2060547,0.5273438,0.4443359,0.6816406  c1.9912109,1.2861328,4.1679688,2.1894531,6.4716797,2.6835938c0.2753906,0.0576172,0.5673828-0.0009766,0.796875-0.1679688  s0.3779297-0.4228516,0.4072266-0.7050781c0.1572266-1.4931641,1.4091797-2.6181641,2.9130859-2.6181641  c1.5029297,0,2.7558594,1.1259766,2.9130859,2.6181641c0.0292969,0.2822266,0.1777344,0.5390625,0.4072266,0.7050781  c0.171875,0.125,0.3779297,0.1904297,0.5869141,0.1904297c0.0703125,0,0.140625-0.0078125,0.2099609-0.0224609  c2.3017578-0.4941406,4.4794922-1.3964844,6.4716797-2.6835938c0.2382812-0.1533203,0.3994141-0.4013672,0.4443359-0.6816406  s-0.03125-0.5654297-0.2089844-0.7861328c-0.9433594-1.1669922-0.8525391-2.8476562,0.2089844-3.9101562  c1.0615234-1.0634766,2.7431641-1.1513672,3.9082031-0.2099609c0.2216797,0.1787109,0.5068359,0.2587891,0.7871094,0.2099609  c0.2792969-0.0449219,0.5273438-0.2060547,0.6816406-0.4443359c1.2861328-1.9882812,2.1884766-4.1660156,2.6835938-6.4716797  c0.0595703-0.2773438-0.0009766-0.5673828-0.1679688-0.796875c-0.1660156-0.2294922-0.4228516-0.3779297-0.7050781-0.4072266  C66.5898438,52.7558594,65.4638672,51.5029297,65.4638672,50s1.1259766-2.7558594,2.6181641-2.9130859  c0.2822266-0.0292969,0.5390625-0.1777344,0.7050781-0.4072266c0.1669922-0.2294922,0.2275391-0.5195312,0.1679688-0.796875  c-0.4951172-2.3056641-1.3974609-4.4833984-2.6835938-6.4716797c-0.1542969-0.2382812-0.4023438-0.3994141-0.6816406-0.4443359  c-0.2802734-0.0449219-0.5654297,0.03125-0.7871094,0.2099609c-1.1650391,0.9414062-2.8466797,0.8515625-3.9082031-0.2099609  c-1.0615234-1.0625-1.1523438-2.7431641-0.2089844-3.9101562c0.1777344-0.2207031,0.2539062-0.5058594,0.2089844-0.7861328  s-0.2060547-0.5283203-0.4443359-0.6816406c-1.9921875-1.2871094-4.1699219-2.1894531-6.4716797-2.6835938  c-0.2763672-0.0576172-0.5664062,0-0.796875,0.1679688c-0.2294922,0.1660156-0.3779297,0.4228516-0.4072266,0.7050781  c-0.1572266,1.4921875-1.4101562,2.6181641-2.9130859,2.6181641c-1.5039062,0-2.7558594-1.125-2.9130859-2.6181641  c-0.0292969-0.2822266-0.1777344-0.5380859-0.4072266-0.7050781s-0.5205078-0.2246094-0.796875-0.1679688  c-2.3037109,0.4941406-4.4804688,1.3974609-6.4716797,2.6835938c-0.2382812,0.1542969-0.3994141,0.4013672-0.4443359,0.6816406  s0.03125,0.5664062,0.2089844,0.7861328c0.9433594,1.1669922,0.8525391,2.8476562-0.2089844,3.9101562  c-1.0634766,1.0615234-2.7441406,1.1513672-3.9091797,0.2099609c-0.2207031-0.1787109-0.5068359-0.2548828-0.7871094-0.2099609  c-0.2792969,0.0449219-0.5273438,0.2060547-0.6816406,0.4443359c-1.2861328,1.9882812-2.1884766,4.1660156-2.6835938,6.4716797  c-0.0595703,0.2773438,0.0009766,0.5673828,0.1679688,0.796875c0.1660156,0.2294922,0.4228516,0.3779297,0.7050781,0.4072266  C33.1318359,47.2441406,34.2578125,48.4970703,34.2578125,50S33.1318359,52.7558594,31.6396484,52.9130859z M32.9560547,45.3447266  c0.3837891-1.3994141,0.9404297-2.7412109,1.6621094-4.0058594c1.8496094,0.8984375,4.1113281,0.5556641,5.6240234-0.9580078  c1.5136719-1.5136719,1.8535156-3.7744141,0.9580078-5.6240234c1.265625-0.7216797,2.6074219-1.2783203,4.0048828-1.6621094  c0.6738281,1.9423828,2.5136719,3.3017578,4.65625,3.3017578s3.9814453-1.359375,4.6552734-3.3017578  c1.3974609,0.3837891,2.7392578,0.9404297,4.0058594,1.6621094c-0.8955078,1.8505859-0.5556641,4.1103516,0.9580078,5.6240234  c1.5126953,1.5136719,3.7753906,1.8564453,5.6230469,0.9580078c0.7216797,1.2646484,1.2783203,2.6064453,1.6621094,4.0058594  C64.8232422,46.0185547,63.4638672,47.8574219,63.4638672,50s1.359375,3.9814453,3.3017578,4.6552734  c-0.3837891,1.3994141-0.9404297,2.7412109-1.6621094,4.0058594c-1.8476562-0.8974609-4.109375-0.5546875-5.6230469,0.9580078  c-1.5136719,1.5136719-1.8535156,3.7734375-0.9580078,5.6240234c-1.2666016,0.7216797-2.6083984,1.2783203-4.0058594,1.6621094  c-0.6738281-1.9423828-2.5126953-3.3017578-4.6552734-3.3017578s-3.9824219,1.359375-4.65625,3.3017578  c-1.3974609-0.3837891-2.7392578-0.9404297-4.0048828-1.6621094c0.8955078-1.8496094,0.5556641-4.1103516-0.9580078-5.6240234  c-1.5126953-1.5126953-3.7744141-1.8554688-5.6240234-0.9580078c-0.7216797-1.2646484-1.2783203-2.6064453-1.6621094-4.0058594  C34.8984375,53.9814453,36.2578125,52.1425781,36.2578125,50S34.8984375,46.0185547,32.9560547,45.3447266z"></path><path xmlns="http://www.w3.org/2000/svg" d="M38.4013672,28.1630859c0.1523438,0,0.3076172-0.0351562,0.453125-0.1083984  c1.1445312-0.5830078,2.3457031-1.0800781,3.5673828-1.4755859c0.5253906-0.1699219,0.8134766-0.7333984,0.6435547-1.2587891  c-0.1689453-0.5253906-0.7353516-0.8134766-1.2587891-0.6435547c-1.3222656,0.4277344-2.6210938,0.9648438-3.8603516,1.5947266  c-0.4921875,0.2509766-0.6875,0.8535156-0.4375,1.3457031C37.6855469,27.9638672,38.0371094,28.1630859,38.4013672,28.1630859z"></path><path xmlns="http://www.w3.org/2000/svg" d="M45.0332031,24.8515625c0.0771484,0.4931641,0.5029297,0.8457031,0.9873047,0.8457031  c0.0507812,0,0.1025391-0.0039062,0.1552734-0.0117188C47.4287109,25.4902344,48.7158203,25.390625,50,25.390625h0.0263672  c0.5527344,0,0.9863281-0.4472656,0.9863281-1s-0.4599609-1-1.0126953-1c-1.3867188,0-2.7773438,0.1074219-4.1328125,0.3183594  C45.3212891,23.7939453,44.9482422,24.3056641,45.0332031,24.8515625z"></path><path xmlns="http://www.w3.org/2000/svg" d="M68.8222656,31.1914062c-0.390625-0.390625-1.0234375-0.390625-1.4140625,0s-0.390625,1.0234375,0,1.4140625  c0.9072266,0.9072266,1.7509766,1.8945312,2.5078125,2.9345703c0.1953125,0.2695312,0.5,0.4121094,0.8095703,0.4121094  c0.2041016,0,0.4101562-0.0625,0.5869141-0.1914062c0.4472656-0.3251953,0.5458984-0.9501953,0.2207031-1.3964844  C70.7158203,33.2392578,69.8037109,32.171875,68.8222656,31.1914062z"></path><path xmlns="http://www.w3.org/2000/svg" d="M53.875,25.6943359c1.2675781,0.1992188,2.5292969,0.5029297,3.75,0.9003906  c0.1025391,0.0332031,0.2070312,0.0488281,0.3095703,0.0488281c0.4208984,0,0.8134766-0.2675781,0.9511719-0.6904297  c0.1708984-0.5244141-0.1162109-1.0888672-0.6416016-1.2607422c-1.3203125-0.4296875-2.6855469-0.7578125-4.0585938-0.9746094  c-0.5458984-0.0800781-1.0576172,0.2871094-1.1435547,0.8330078C52.9560547,25.0957031,53.3291016,25.6074219,53.875,25.6943359z"></path><path xmlns="http://www.w3.org/2000/svg" d="M70.0742188,65.9335938c0.1787109,0.1308594,0.3857422,0.1933594,0.5908203,0.1933594  c0.3076172,0,0.6113281-0.1416016,0.8076172-0.4082031c0.8203125-1.1191406,1.5595703-2.3134766,2.1962891-3.5488281  c0.2529297-0.4902344,0.0605469-1.09375-0.4306641-1.3466797c-0.4912109-0.2548828-1.0927734-0.0605469-1.3466797,0.4306641  c-0.5888672,1.1425781-1.2724609,2.2460938-2.0322266,3.28125C69.5332031,64.9804688,69.6289062,65.6064453,70.0742188,65.9335938z"></path><path xmlns="http://www.w3.org/2000/svg" d="M67.3427734,67.4609375c-0.9160156,0.9091797-1.9072266,1.75-2.9443359,2.4990234  c-0.4472656,0.3232422-0.5478516,0.9482422-0.2246094,1.3964844c0.1953125,0.2705078,0.5009766,0.4140625,0.8115234,0.4140625  c0.203125,0,0.4072266-0.0615234,0.5849609-0.1894531c1.1210938-0.8105469,2.1914062-1.71875,3.1806641-2.7001953  c0.3925781-0.3886719,0.3945312-1.0224609,0.0058594-1.4140625C68.3671875,67.0732422,67.734375,67.0722656,67.3427734,67.4609375z"></path><path xmlns="http://www.w3.org/2000/svg" d="M72.3701172,37.4873047c-0.4921875,0.2519531-0.6865234,0.8535156-0.4355469,1.3457031  c0.5839844,1.1425781,1.0820312,2.3427734,1.4785156,3.5654297c0.1367188,0.4228516,0.5292969,0.6914062,0.9511719,0.6914062  c0.1025391,0,0.2060547-0.015625,0.3085938-0.0488281c0.5253906-0.1708984,0.8134766-0.734375,0.6425781-1.2597656  c-0.4296875-1.3232422-0.9677734-2.6220703-1.5996094-3.8583984C73.4648438,37.4326172,72.8623047,37.2382812,72.3701172,37.4873047  z"></path><path xmlns="http://www.w3.org/2000/svg" d="M73.3818359,57.6962891c-0.171875,0.5244141,0.1132812,1.0898438,0.6376953,1.2626953  c0.1035156,0.0341797,0.2089844,0.0498047,0.3125,0.0498047c0.4199219,0,0.8115234-0.2666016,0.9501953-0.6875  c0.4335938-1.3173828,0.765625-2.6816406,0.9873047-4.0556641c0.0878906-0.5449219-0.2832031-1.0585938-0.828125-1.1464844  c-0.546875-0.0888672-1.0585938,0.2832031-1.1464844,0.828125C74.0898438,55.2167969,73.7832031,56.4785156,73.3818359,57.6962891z"></path><path xmlns="http://www.w3.org/2000/svg" d="M61.1875,28.0742188c1.1445312,0.5849609,2.25,1.2646484,3.2880859,2.0214844  c0.1777344,0.1289062,0.3837891,0.1914062,0.5878906,0.1914062c0.3085938,0,0.6132812-0.1425781,0.8095703-0.4111328  c0.3251953-0.4462891,0.2265625-1.0722656-0.2197266-1.3974609c-1.1220703-0.8173828-2.3173828-1.5527344-3.5537109-2.1855469  c-0.4921875-0.25-1.0927734-0.0566406-1.3466797,0.4345703C60.5019531,27.2197266,60.6962891,27.8222656,61.1875,28.0742188z"></path><path xmlns="http://www.w3.org/2000/svg" d="M75.609375,51.0517578c0.5517578,0,1-0.4990234,1-1.0517578c0-1.3935547-0.109375-2.7929688-0.3232422-4.1591797  c-0.0859375-0.5458984-0.5996094-0.9150391-1.1435547-0.8330078c-0.5458984,0.0859375-0.9179688,0.5976562-0.8330078,1.1435547  c0.1992188,1.2636719,0.2998047,2.5585938,0.2998047,3.8212891l-0.0009766,0.1308594  C74.6083984,50.65625,75.0566406,51.0517578,75.609375,51.0517578z"></path><path xmlns="http://www.w3.org/2000/svg" d="M24.7109375,46.9433594c0.4833984,0,0.9082031-0.3505859,0.9863281-0.8427734  c0.2021484-1.2714844,0.5068359-2.5332031,0.9042969-3.75c0.171875-0.5244141-0.1142578-1.0898438-0.6396484-1.2607422  c-0.5273438-0.1757812-1.0898438,0.1152344-1.2607422,0.6396484c-0.4306641,1.3164062-0.7597656,2.6816406-0.9785156,4.0566406  c-0.0869141,0.5458984,0.2851562,1.0576172,0.8300781,1.1445312C24.6064453,46.9394531,24.6591797,46.9433594,24.7109375,46.9433594  z"></path><path xmlns="http://www.w3.org/2000/svg" d="M28.6582031,64.1953125c-0.4472656,0.3232422-0.546875,0.9492188-0.2226562,1.3964844  c0.8144531,1.125,1.7246094,2.1943359,2.703125,3.1777344c0.1962891,0.1962891,0.4521484,0.2939453,0.7089844,0.2939453  c0.2548828,0,0.5107422-0.0966797,0.7060547-0.2910156c0.390625-0.390625,0.3925781-1.0234375,0.0029297-1.4150391  c-0.90625-0.9091797-1.7480469-1.8984375-2.5019531-2.9394531C29.7314453,63.9716797,29.1074219,63.8701172,28.6582031,64.1953125z"></path><path xmlns="http://www.w3.org/2000/svg" d="M28.4960938,34.3251953c-0.8183594,1.1210938-1.5546875,2.3154297-2.1884766,3.5517578  c-0.2519531,0.4912109-0.0585938,1.09375,0.4335938,1.3457031c0.1455078,0.0751953,0.3017578,0.1103516,0.4550781,0.1103516  c0.3632812,0,0.7138672-0.1982422,0.890625-0.5439453c0.5859375-1.1425781,1.2675781-2.2470703,2.0244141-3.2841797  c0.3261719-0.4462891,0.2285156-1.0722656-0.2177734-1.3974609C29.4472656,33.78125,28.8212891,33.8808594,28.4960938,34.3251953z"></path><path xmlns="http://www.w3.org/2000/svg" d="M61.1025391,71.9697266c-1.1455078,0.5800781-2.3476562,1.0732422-3.5712891,1.4667969  c-0.5263672,0.1689453-0.8154297,0.7324219-0.6464844,1.2578125c0.1367188,0.4248047,0.5292969,0.6943359,0.9521484,0.6943359  c0.1015625,0,0.2041016-0.015625,0.3056641-0.0478516c1.3242188-0.4257812,2.6240234-0.9589844,3.8642578-1.5878906  c0.4921875-0.2490234,0.6894531-0.8505859,0.4394531-1.34375C62.1982422,71.9169922,61.5986328,71.7158203,61.1025391,71.9697266z"></path><path xmlns="http://www.w3.org/2000/svg" d="M42.3271484,73.3896484c-0.5292969-0.1748047-1.0908203,0.1152344-1.2617188,0.6386719  c-0.171875,0.5253906,0.1142578,1.0898438,0.6386719,1.2617188c1.3222656,0.4335938,2.6865234,0.7636719,4.0566406,0.9824219  c0.0537109,0.0087891,0.1074219,0.0126953,0.1591797,0.0126953c0.4833984,0,0.9082031-0.3505859,0.9863281-0.8417969  c0.0869141-0.5458984-0.2841797-1.0585938-0.8291016-1.1455078C44.8105469,74.0957031,43.5488281,73.7900391,42.3271484,73.3896484z  "></path><path xmlns="http://www.w3.org/2000/svg" d="M38.7675781,71.9023438c-1.140625-0.5859375-2.2451172-1.2685547-3.2832031-2.0273438  c-0.4453125-0.3251953-1.0712891-0.2294922-1.3974609,0.2177734c-0.3251953,0.4453125-0.2285156,1.0712891,0.2177734,1.3974609  c1.1210938,0.8193359,2.3154297,1.5566406,3.5488281,2.1914062C38,73.7568359,38.1552734,73.7919922,38.3095703,73.7919922  c0.3632812,0,0.7128906-0.1982422,0.890625-0.5429688C39.4521484,72.7578125,39.2587891,72.1552734,38.7675781,71.9023438z"></path><path xmlns="http://www.w3.org/2000/svg" d="M54.9160156,75.1591797c-0.0830078-0.5458984-0.5957031-0.9208984-1.1396484-0.8369141  C52.5332031,74.5126953,51.2626953,74.609375,50,74.609375h-0.0771484c-0.5527344,0-0.9609375,0.4472656-0.9609375,1  s0.4853516,1,1.0380859,1c1.3632812,0,2.7363281-0.1044922,4.0791016-0.3105469  C54.625,76.2148438,55,75.7050781,54.9160156,75.1591797z"></path><path xmlns="http://www.w3.org/2000/svg" d="M23.390625,50c0,1.375,0.1054688,2.7568359,0.3144531,4.1064453  c0.0761719,0.4931641,0.5019531,0.8466797,0.9873047,0.8466797c0.0507812,0,0.1015625-0.0039062,0.1542969-0.0117188  c0.5449219-0.0839844,0.9189453-0.5957031,0.8349609-1.1416016C25.4882812,52.5517578,25.390625,51.2734375,25.390625,50v-0.0517578  c0-0.5527344-0.4472656-0.9746094-1-0.9746094S23.390625,49.4472656,23.390625,50z"></path><path xmlns="http://www.w3.org/2000/svg" d="M26.2587891,62.0292969c0.1767578,0.3466797,0.5273438,0.546875,0.8925781,0.546875  c0.1523438,0,0.3066406-0.0351562,0.4521484-0.1083984c0.4921875-0.25,0.6884766-0.8515625,0.4384766-1.3447266  c-0.5830078-1.1484375-1.078125-2.3496094-1.4707031-3.5693359c-0.1699219-0.5253906-0.7353516-0.8125-1.2587891-0.6455078  c-0.5253906,0.1699219-0.8144531,0.7324219-0.6455078,1.2587891C25.0917969,59.4863281,25.6279297,60.7861328,26.2587891,62.0292969  z"></path><path xmlns="http://www.w3.org/2000/svg" d="M32.6240234,32.5732422c0.9101562-0.9082031,1.8984375-1.75,2.9375-2.5039062  c0.4472656-0.3242188,0.546875-0.9492188,0.2226562-1.3964844c-0.3232422-0.4462891-0.9501953-0.5478516-1.3964844-0.2226562  c-1.1240234,0.8154297-2.1923828,1.7255859-3.1757812,2.7070312c-0.3916016,0.390625-0.3916016,1.0234375-0.0019531,1.4140625  c0.1953125,0.1962891,0.4521484,0.2939453,0.7080078,0.2939453S32.4287109,32.7675781,32.6240234,32.5732422z"></path><path xmlns="http://www.w3.org/2000/svg" d="M50.8896484,18.1611328v-7.2011719c0-0.5527344-0.4472656-1-1-1s-1,0.4472656-1,1v7.2011719c0,0.5527344,0.4472656,1,1,1  S50.8896484,18.7138672,50.8896484,18.1611328z"></path><path xmlns="http://www.w3.org/2000/svg" d="M20.9912109,19.6875c-0.390625-0.390625-1.0234375-0.390625-1.4140625,0s-0.390625,1.0234375,0,1.4140625  l5.0927734,5.0917969c0.1953125,0.1953125,0.4511719,0.2929688,0.7070312,0.2929688s0.5117188-0.0976562,0.7070312-0.2929688  c0.390625-0.390625,0.390625-1.0234375,0-1.4140625L20.9912109,19.6875z"></path><path xmlns="http://www.w3.org/2000/svg" d="M19.0517578,50c0-0.5527344-0.4472656-1-1-1h-7.2021484c-0.5527344,0-1,0.4472656-1,1s0.4472656,1,1,1h7.2021484  C18.6044922,51,19.0517578,50.5527344,19.0517578,50z"></path><path xmlns="http://www.w3.org/2000/svg" d="M19.5771484,80.3125c0.1953125,0.1953125,0.4511719,0.2929688,0.7070312,0.2929688s0.5117188-0.0976562,0.7070312-0.2929688  l5.0927734-5.0917969c0.390625-0.390625,0.390625-1.0234375,0-1.4140625s-1.0234375-0.390625-1.4140625,0l-5.0927734,5.0917969  C19.1865234,79.2890625,19.1865234,79.921875,19.5771484,80.3125z"></path><path xmlns="http://www.w3.org/2000/svg" d="M48.8896484,81.8388672v7.2011719c0,0.5527344,0.4472656,1,1,1s1-0.4472656,1-1v-7.2011719c0-0.5527344-0.4472656-1-1-1  S48.8896484,81.2861328,48.8896484,81.8388672z"></path><path xmlns="http://www.w3.org/2000/svg" d="M73.6962891,75.2207031L78.7880859,80.3125c0.1953125,0.1953125,0.4511719,0.2929688,0.7070312,0.2929688  s0.5117188-0.0976562,0.7070312-0.2929688c0.390625-0.390625,0.390625-1.0234375,0-1.4140625l-5.0917969-5.0917969  c-0.390625-0.390625-1.0234375-0.390625-1.4140625,0S73.3056641,74.8300781,73.6962891,75.2207031z"></path><path xmlns="http://www.w3.org/2000/svg" d="M88.9296875,49h-7.2011719c-0.5527344,0-1,0.4472656-1,1s0.4472656,1,1,1h7.2011719c0.5527344,0,1-0.4472656,1-1  S89.4824219,49,88.9296875,49z"></path><path xmlns="http://www.w3.org/2000/svg" d="M80.2021484,19.6875c-0.390625-0.390625-1.0234375-0.390625-1.4140625,0l-5.0917969,5.0917969  c-0.390625,0.390625-0.390625,1.0234375,0,1.4140625c0.1953125,0.1953125,0.4511719,0.2929688,0.7070312,0.2929688  s0.5117188-0.0976562,0.7070312-0.2929688l5.0917969-5.0917969C80.5927734,20.7109375,80.5927734,20.078125,80.2021484,19.6875z"></path></g><g id="SvgjsG1057" featurekey="nameFeature-0" transform="matrix(0.921658992767334,0,0,0.921658992767334,120,26.19821005263087)" fill="#000000"><path d="M8.4 34.4 l2.8 0 l0 5.6 l-11.2 0 l0 -5.6 l2.8 0 l0 -16.8 l-2.8 0 l0 -5.6 l11.2 0 l0 5.6 l-2.8 0 l0 16.8 z M26.880000000000003 12 c1.2267 0 2.3867 0.23336 3.48 0.70004 s2.0466 1.1067 2.86 1.92 s1.4533 1.7666 1.92 2.86 s0.7 2.2533 0.7 3.48 c0 1.2533 -0.23332 2.42 -0.7 3.5 s-1.1067 2.0267 -1.92 2.84 s-1.7666 1.4533 -2.86 1.92 s-2.2533 0.7 -3.48 0.7 l-4.76 0 l0 4.48 l2.8 0 l0 5.6 l-11.2 0 l0 -5.6 l2.8 0 l0 -16.8 l-2.8 0 l0 -5.6 l13.16 0 z M26.880000000000003 24.32 c0.93332 0 1.7266 -0.32676 2.38 -0.98008 s0.98 -1.4466 0.98 -2.38 s-0.32668 -1.7266 -0.98 -2.38 s-1.4466 -0.98 -2.38 -0.98 l-4.76 0 l0 6.72 l4.76 0 z M57.68 12 l0 8.4 l-5.6 0 l0 -2.8 l-5.6 0 l0 5.6 l5.6 0 l0 5.6 l-5.6 0 l0 5.6 l5.6 0 l0 -2.8 l5.6 0 l0 8.4 l-19.6 0 l0 -5.6 l2.8 0 l0 -16.8 l-2.8 0 l0 -5.6 l19.6 0 z M71.4 12 c1.5467 0 3 0.29332 4.36 0.88 s2.5467 1.3867 3.56 2.4 s1.8133 2.2 2.4 3.56 s0.88 2.8133 0.88 4.36 l0 5.6 c0 1.5467 -0.29332 3 -0.88 4.36 s-1.3867 2.5467 -2.4 3.56 s-2.2 1.8133 -3.56 2.4 s-2.8133 0.88 -4.36 0.88 l-11.2 0 l0 -5.6 l2.8 0 l0 -16.8 l-2.8 0 l0 -5.6 l11.2 0 z M71.4 34.4 c0.77332 0 1.5 -0.14668 2.18 -0.44 s1.2733 -0.69332 1.78 -1.2 s0.90668 -1.1 1.2 -1.78 s0.44 -1.4067 0.44 -2.18 l0 -5.6 c0 -0.77332 -0.14668 -1.5 -0.44 -2.18 s-0.69332 -1.2733 -1.2 -1.78 s-1.1 -0.90668 -1.78 -1.2 s-1.4067 -0.44 -2.18 -0.44 l-2.8 0 l0 16.8 l2.8 0 z M120.96000000000001 12 l0 8.4 l-5.6 0 l0 -2.8 l-2.8 0 l0 16.8 l2.8 0 l0 5.6 l-11.2 0 l0 -5.6 l2.8 0 l0 -16.8 l-2.8 0 l0 2.8 l-5.6 0 l0 -8.4 l22.4 0 z M137.44 12 c1.1467 0 2.2334 0.22 3.26 0.66 s1.92 1.04 2.68 1.8 s1.36 1.6533 1.8 2.68 s0.66 2.1134 0.66 3.26 l0 11.2 c0 1.1733 -0.22 2.2666 -0.66 3.28 s-1.04 1.9 -1.8 2.66 s-1.6533 1.36 -2.68 1.8 s-2.1134 0.66 -3.26 0.66 l-5.6 0 c-1.1733 0 -2.2666 -0.22 -3.28 -0.66 s-1.9 -1.04 -2.66 -1.8 s-1.36 -1.6467 -1.8 -2.66 s-0.66 -2.1066 -0.66 -3.28 l0 -11.2 c0 -1.1467 0.22 -2.2334 0.66 -3.26 s1.04 -1.92 1.8 -2.68 s1.6467 -1.36 2.66 -1.8 s2.1066 -0.66 3.28 -0.66 l5.6 0 z M140.24 20.4 c0 -0.77332 -0.27332 -1.4333 -0.82 -1.98 s-1.2067 -0.82 -1.98 -0.82 l-5.6 0 c-0.77332 0 -1.4333 0.27332 -1.98 0.82 s-0.82 1.2067 -0.82 1.98 l0 11.2 c0 0.77332 0.27332 1.4333 0.82 1.98 s1.2067 0.82 1.98 0.82 l5.6 0 c0.77332 0 1.4333 -0.27332 1.98 -0.82 s0.82 -1.2067 0.82 -1.98 l0 -11.2 z M162.72 12 c1.1467 0 2.2334 0.22 3.26 0.66 s1.92 1.04 2.68 1.8 s1.36 1.6533 1.8 2.68 s0.66 2.1134 0.66 3.26 l0 11.2 c0 1.1733 -0.22 2.2666 -0.66 3.28 s-1.04 1.9 -1.8 2.66 s-1.6533 1.36 -2.68 1.8 s-2.1134 0.66 -3.26 0.66 l-5.6 0 c-1.1733 0 -2.2666 -0.22 -3.28 -0.66 s-1.9 -1.04 -2.66 -1.8 s-1.36 -1.6467 -1.8 -2.66 s-0.66 -2.1066 -0.66 -3.28 l0 -11.2 c0 -1.1467 0.22 -2.2334 0.66 -3.26 s1.04 -1.92 1.8 -2.68 s1.6467 -1.36 2.66 -1.8 s2.1066 -0.66 3.28 -0.66 l5.6 0 z M165.52 20.4 c0 -0.77332 -0.27332 -1.4333 -0.82 -1.98 s-1.2067 -0.82 -1.98 -0.82 l-5.6 0 c-0.77332 0 -1.4333 0.27332 -1.98 0.82 s-0.82 1.2067 -0.82 1.98 l0 11.2 c0 0.77332 0.27332 1.4333 0.82 1.98 s1.2067 0.82 1.98 0.82 l5.6 0 c0.77332 0 1.4333 -0.27332 1.98 -0.82 s0.82 -1.2067 0.82 -1.98 l0 -11.2 z M193.2 31.6 l0 8.4 l-19.6 0 l0 -5.6 l2.8 0 l0 -16.8 l-2.8 0 l0 -5.6 l11.2 0 l0 5.6 l-2.8 0 l0 16.8 l5.6 0 l0 -2.8 l5.6 0 z M206.64 23.28 c2.32 0.34668 4.1668 0.9132 5.54 1.6999 s2.42 1.64 3.14 2.56 s1.18 1.8267 1.38 2.72 s0.3 1.62 0.3 2.18 c0 1.12 -0.23332 2.16 -0.7 3.12 s-1.1067 1.7867 -1.92 2.48 s-1.7733 1.24 -2.88 1.64 s-2.3134 0.6 -3.62 0.6 c-1.36 0 -2.58 -0.14 -3.66 -0.42 s-2.0467 -0.64668 -2.9 -1.1 l0 1.24 l-5.6 0 l0 -8.4 l5.6 0 c0.48 0.53332 0.95332 0.99332 1.42 1.38 s0.94668 0.70668 1.44 0.96 s1.04 0.44 1.64 0.56 s1.2867 0.18 2.06 0.18 c1.0133 0 1.8533 -0.20668 2.52 -0.62 s1 -0.95332 1 -1.62 c0 -0.56 -0.17332 -1.0467 -0.52 -1.46 s-0.79336 -0.76664 -1.34 -1.06 s-1.1467 -0.52664 -1.8 -0.69996 s-1.3 -0.31332 -1.94 -0.42 c-2.2667 -0.34668 -4.08 -0.88 -5.44 -1.6 s-2.4067 -1.5067 -3.14 -2.36 s-1.2133 -1.7266 -1.44 -2.62 s-0.34 -1.6866 -0.34 -2.38 c0 -1.1467 0.23332 -2.2134 0.7 -3.2 s1.1134 -1.8467 1.94 -2.58 s1.7867 -1.3066 2.88 -1.72 s2.28 -0.62 3.56 -0.62 c1.36 0 2.5467 0.13332 3.56 0.4 s1.9333 0.62668 2.76 1.08 l0 -1.2 l5.6 0 l0 8.4 l-5.64 0 c-0.45332 -0.50668 -0.89332 -0.95336 -1.32 -1.34 s-0.88 -0.70668 -1.36 -0.96 s-1.0067 -0.44664 -1.58 -0.57996 s-1.2466 -0.2 -2.02 -0.2 c-1.12 0 -1.98 0.26668 -2.58 0.8 s-0.9 1.1066 -0.9 1.72 c0 1.7333 1.8667 2.88 5.6 3.44 z"></path></g></svg>